File size: 3.67 GiB
Overall bit rate: 4 208 Kbps
Writing library: VirtualDub build 30091/release

Video
ID: 0
Format: MPEG-4 Visual
Format profile: Advanced Simple@L5
Format settings, BVOP: 2
Format settings, QPel: No
Format settings, GMC: No warppoints
Format settings, Matrix: Default (H.263)
Codec ID: XVID
Codec ID/Hint: XviD
Bit rate: 3 575 Kbps
Width: 1 280 pixels
Height: 528 pixels
Display aspect ratio: 2.40:1
Frame rate: 24.000 fps
Color space: YUV
Chroma subsampling: 4:2:0
Bit depth: 8 bits
Scan type: Progressive
Compression mode: Lossy
Bits/(Pixel*Frame): 0.220
Stream size: 3.12 GiB (85%)
Writing library: XviD 1.2.1 (UTC 2008-12-04)

Audio
ID: 1
Format: AC-3
Format/Info: Audio Coding 3
Mode extension: CM (complete main)
Format settings, Endianness: Big
Codec ID: 2000
Bit rate mode: Constant
Bit rate: 640 Kbps
Channel(s): 6 channels
Channel positions: Front: L C R, Side: L R, LFE
Sampling rate: 48.0 KHz
Bit depth: 16 bits
Compression mode: Lossy
Stream size: 556 MiB (15%)
Alignment: Split accross interleaves
Interleave, duration: 43 ms (1.03 video frame)
Interleave, preload duration: 500 ms

source &gt;&gt;&gt;&gt;&gt;&gt;The.Company.You.Keep.2012.1080p.BluRay.x264.DTS-PTpOWeR thanks

sample provided

Screens:
 
http://i.imgur.com/x9hhNWm.png 
http://i.imgur.com/me9C682.png 
http://i.imgur.com/3fyehki.png 
http://i.imgur.com/SJfMRep.png 
http://i.imgur.com/qTBSECk.png